<svg width="397" height="291" viewBox="0 0 397 291" fill="none" xmlns="http://www.w3.org/2000/svg">
<g filter="url(#filter0_d_402_5890)">
<path d="M15 24C15 18.4771 19.4772 14 25 14H372C377.523 14 382 18.4772 382 24V265C382 270.523 377.523 275 372 275H25C19.4772 275 15 270.523 15 265V24Z" fill="white"/>
</g>
<mask id="mask0_402_5890" style="mask-type:alpha" maskUnits="userSpaceOnUse" x="15" y="14" width="367" height="261">
<path d="M15 24C15 18.4771 19.4772 14 25 14H372C377.523 14 382 18.4772 382 24V265C382 270.523 377.523 275 372 275H25C19.4772 275 15 270.523 15 265V24Z" fill="white"/>
</mask>
<g mask="url(#mask0_402_5890)">
<path d="M-148 150.68L-55.1912 259.834L188.591 52.5581C218.733 26.9296 222.392 -18.2815 196.763 -48.4236C171.135 -78.5658 125.924 -82.2249 95.7818 -56.5964L-148 150.68Z" fill="#29B67B" fill-opacity="0.1"/>
</g>
<defs>
<filter id="filter0_d_402_5890" x="0" y="0" width="397" height="291" filterUnits="userSpaceOnUse" color-interpolation-filters="sRGB">
<feFlood flood-opacity="0" result="BackgroundImageFix"/>
<feColorMatrix in="SourceAlpha" type="matrix" values="0 0 0 0 0 0 0 0 0 0 0 0 0 0 0 0 0 0 127 0" result="hardAlpha"/>
<feOffset dy="1"/>
<feGaussianBlur stdDeviation="7.5"/>
<feComposite in2="hardAlpha" operator="out"/>
<feColorMatrix type="matrix" values="0 0 0 0 0 0 0 0 0 0 0 0 0 0 0 0 0 0 0.05 0"/>
<feBlend mode="normal" in2="BackgroundImageFix" result="effect1_dropShadow_402_5890"/>
<feBlend mode="normal" in="SourceGraphic" in2="effect1_dropShadow_402_5890" result="shape"/>
</filter>
</defs>
</svg>
