<svg width="42" height="51" viewBox="0 0 42 51" fill="none" xmlns="http://www.w3.org/2000/svg">
<path d="M19.5567 1.23402C20.0402 0.814632 20.7129 0.521754 21.3567 0.703256C21.7585 0.816295 22.1669 0.975024 22.4742 1.2679C24.7933 3.30344 27.0592 5.39717 29.2753 7.54325C32.2392 10.4338 35.144 13.3994 37.7509 16.6206C41.1596 21.3618 42.4576 27.5487 41.2626 33.2629C40.3689 37.6767 37.9966 41.7697 34.6175 44.7438C30.8442 48.1034 25.8339 50.0411 20.7804 50.0665C17.4856 49.9812 14.2162 49.1027 11.32 47.5313C8.43453 45.9733 5.92128 43.7277 4.05794 41.0296C2.17418 38.3215 0.958935 35.1575 0.524414 31.8889C3.34734 31.8873 6.1711 31.8916 8.99403 31.8873C9.61172 34.5592 11.1478 37.0024 13.2837 38.7206C15.7193 40.7029 18.9144 41.7132 22.0472 41.5013C24.9637 41.3351 27.8086 40.1097 29.9277 38.0978C31.9978 36.1643 33.371 33.495 33.7119 30.6805C34.0967 27.6719 33.3018 24.5367 31.5269 22.0774C29.8298 19.6807 27.2559 17.9337 24.4118 17.2121C21.3137 16.4156 17.9161 16.83 15.1184 18.3903C12.6424 19.7516 10.6406 21.9712 9.58812 24.5983C9.36121 25.1257 9.21012 25.6811 9.04125 26.2288C6.20652 26.2161 3.37095 26.2271 0.535382 26.2236C1.00032 22.81 2.31263 19.5186 4.3186 16.7185C6.04279 14.3151 8.04043 12.1233 10.0979 10.0033C13.1082 6.93139 16.2805 4.01987 19.5567 1.23402Z" fill="#1DC46C"/>
</svg>
